<?xml version="1.0" encoding="utf-8"?>
<!-- Generator: Adobe Illustrator 16.0.0, SVG Export Plug-In . SVG Version: 6.00 Build 0)  -->
<!DOCTYPE svg PUBLIC "-//W3C//DTD SVG 1.1//EN" "http://www.w3.org/Graphics/SVG/1.1/DTD/svg11.dtd">
<svg version="1.1" id="Layer_1" xmlns="http://www.w3.org/2000/svg" xmlns:xlink="http://www.w3.org/1999/xlink" x="0px" y="0px"
	 width="61.299px" height="37.879px" viewBox="0 0 61.299 37.879" style="enable-background:new 0 0 61.299 37.879;"
	 xml:space="preserve">
<g>
	<g>
		<path style="fill:#BE9461;" d="M27.201,30.492c-0.014-0.041-0.026-0.083-0.026-0.128l-8.487-8.933
			c-0.071-0.073-0.134-0.151-0.194-0.23c0,0-3.57,3.104-6.973,5.633c-0.233,0.185-0.48,0.355-0.734,0.513h-0.002
			c-1.071,0.645-2.324,1.016-3.667,1.016c-3.732,0-6.763-2.89-7.06-6.543C0.042,22.014,0,22.198,0,22.395
			c0,3.932,3.189,7.116,7.118,7.116c1.342,0,2.596-0.374,3.667-1.015l0.002-0.004c0.254-0.154,0.501-0.326,0.734-0.512
			c3.403-2.528,6.973-5.633,6.973-5.633c0.06,0.081,0.123,0.157,0.194,0.232l7.812,8.224C26.739,30.708,26.957,30.573,27.201,30.492
			z"/>
		<path style="fill:#BE9461;" d="M7.118,17.834c-1.888,0-3.417,1.529-3.417,3.415c0,0.202,0.081,0.378,0.115,0.573
			c0.283-1.602,1.616-2.842,3.302-2.842c1.681,0,3.016,1.24,3.298,2.842c0.034-0.195,0.117-0.371,0.117-0.573
			C10.533,19.364,9,17.834,7.118,17.834z"/>
		<rect x="19.847" y="36.698" style="fill:#BE9461;" width="22.485" height="1.148"/>
		<path style="fill:#BE9461;" d="M40.974,24.084l-5.968,6.28c0,0.045-0.011,0.087-0.024,0.128c0.241,0.081,0.462,0.215,0.698,0.312
			l5.294-5.574c6.468-6.702,12.838-7.032,20.31-7.032v-1.146C53.812,17.051,47.441,17.38,40.974,24.084z"/>
	</g>
	<g>
		<path style="fill:#BE9461;" d="M29.188,4.437c-0.317-0.332-0.611-1.344-0.721-1.807c0,0-0.008,0.949-0.008,1.15
			c0,0.278,0.076,0.532,0.154,0.78C28.808,4.521,28.992,4.466,29.188,4.437z"/>
		<path style="fill:#BE9461;" d="M33.565,4.561c0.078-0.25,0.155-0.502,0.155-0.78c0-0.202,0.005-1.15,0.005-1.15
			c-0.108,0.461-0.417,1.475-0.729,1.807C33.188,4.466,33.374,4.521,33.565,4.561z"/>
		<rect x="19.847" y="11.113" style="fill:#BE9461;" width="22.485" height="0.848"/>
	</g>
	<g>
		<g>
			<linearGradient id="SVGID_1_" gradientUnits="userSpaceOnUse" x1="35.5361" y1="35.6621" x2="25.8799" y2="4.0948">
				<stop  offset="0" style="stop-color:#F4B86A"/>
				<stop  offset="0.212" style="stop-color:#F4C06E"/>
				<stop  offset="0.3549" style="stop-color:#F1B46C"/>
				<stop  offset="0.5933" style="stop-color:#F4CE75"/>
				<stop  offset="0.6251" style="stop-color:#F6E5BE"/>
				<stop  offset="0.7769" style="stop-color:#F3DC9C"/>
				<stop  offset="0.8452" style="stop-color:#F4D679"/>
				<stop  offset="1" style="stop-color:#F4DD7D"/>
			</linearGradient>
			<path style="fill:url(#SVGID_1_);" d="M34.988,30.5c0.011-0.045,0.022-0.087,0.026-0.13l5.969-6.285
				c6.467-6.705,12.842-7.035,20.315-7.035l-1.846-2.913H41.438h-1.792H21.518c0,0-0.831,0-2.116,0c-4.065,0-10.912,0-12.388,0
				l0,0.002C3.131,14.192,0,17.355,0,21.25c0,3.931,3.185,7.115,7.116,7.115c1.341,0,2.595-0.371,3.665-1.016v0.001
				c0.001-0.001,0.003-0.001,0.004-0.003c0.255-0.155,0.5-0.324,0.734-0.512c3.405-2.526,6.974-5.631,6.974-5.631
				c0.063,0.078,0.126,0.154,0.197,0.229l8.488,8.937c0.004,0.043,0.015,0.085,0.025,0.13c-3.125,1.029-5.741,3.272-7.353,6.204
				H42.34C40.729,33.772,38.113,31.529,34.988,30.5z M7.116,24.665c-1.889,0-3.417-1.528-3.417-3.415
				c0-1.885,1.529-3.415,3.417-3.415c1.884,0,3.414,1.529,3.414,3.415C10.53,23.137,9,24.665,7.116,24.665z"/>
			<linearGradient id="SVGID_2_" gradientUnits="userSpaceOnUse" x1="38.3438" y1="34.8047" x2="28.687" y2="3.2358">
				<stop  offset="0" style="stop-color:#F4B86A"/>
				<stop  offset="0.212" style="stop-color:#F4C06E"/>
				<stop  offset="0.3549" style="stop-color:#F1B46C"/>
				<stop  offset="0.5933" style="stop-color:#F4CE75"/>
				<stop  offset="0.6251" style="stop-color:#F6E5BE"/>
				<stop  offset="0.7769" style="stop-color:#F3DC9C"/>
				<stop  offset="0.8452" style="stop-color:#F4D679"/>
				<stop  offset="1" style="stop-color:#F4DD7D"/>
			</linearGradient>
			<path style="fill:url(#SVGID_2_);" d="M33,4.434c0.445-0.472,0.726-1.104,0.726-1.804c0-1.445-1.166-2.615-2.608-2.627
				C31.111,0.002,31.104,0,31.104,0h-0.008l0,0c-1.452,0-2.629,1.177-2.629,2.629c0,0.7,0.278,1.332,0.725,1.804
				c-3.996,0.619-7.398,3.145-9.341,6.678H42.34C40.396,7.577,36.994,5.052,33,4.434z"/>
		</g>
	</g>
</g>
</svg>
