<?xml version="1.0" encoding="utf-8"?>
<!-- Generator: Adobe Illustrator 16.0.0, SVG Export Plug-In . SVG Version: 6.00 Build 0)  -->
<!DOCTYPE svg PUBLIC "-//W3C//DTD SVG 1.1//EN" "http://www.w3.org/Graphics/SVG/1.1/DTD/svg11.dtd">
<svg version="1.1" id="Layer_1" xmlns="http://www.w3.org/2000/svg" xmlns:xlink="http://www.w3.org/1999/xlink" x="0px" y="0px"
	 width="32.842px" height="33.533px" viewBox="0 0 32.842 33.533" style="enable-background:new 0 0 32.842 33.533;"
	 xml:space="preserve">
<g>
	
		<linearGradient id="SVGID_1_" gradientUnits="userSpaceOnUse" x1="8618.8516" y1="35.7866" x2="8595.7754" y2="-1.8186" gradientTransform="matrix(-1 0 0 1 8623.3887 0)">
		<stop  offset="0" style="stop-color:#F3B86A"/>
		<stop  offset="0.212" style="stop-color:#F3C06D"/>
		<stop  offset="0.3549" style="stop-color:#F1B56D"/>
		<stop  offset="0.5933" style="stop-color:#F4CE75"/>
		<stop  offset="0.6251" style="stop-color:#F6E5BE"/>
		<stop  offset="0.7769" style="stop-color:#F3DC9D"/>
		<stop  offset="0.8452" style="stop-color:#F4D679"/>
		<stop  offset="1" style="stop-color:#F4DD7D"/>
	</linearGradient>
	<path style="fill:url(#SVGID_1_);" d="M0,24.562c0,4.573,3.707,8.28,8.279,8.28h16.283c4.572,0,8.279-3.707,8.279-8.28V8.28
		c0-4.572-3.707-8.28-8.279-8.28H8.279C3.707,0,0,3.708,0,8.28V24.562z"/>
	<path style="fill:#C18B4B;" d="M24.562,32.842H8.279C3.707,32.842,0,29.135,0,24.562v0.691c0,4.573,3.707,8.279,8.279,8.279h16.283
		c4.572,0,8.279-3.706,8.279-8.279v-0.691C32.842,29.135,29.135,32.842,24.562,32.842z"/>
	<g>
		<g>
			<path style="fill:#F7E7C7;" d="M15.141,20.255c-0.005-0.016-0.01-0.031-0.01-0.048l-3.16-3.327
				c-0.026-0.027-0.05-0.056-0.072-0.085c0,0-1.329,1.156-2.597,2.098c-0.087,0.068-0.179,0.132-0.273,0.19H9.027
				c-0.398,0.24-0.865,0.378-1.365,0.378c-1.39,0-2.519-1.075-2.629-2.436c-0.006,0.072-0.021,0.141-0.021,0.214
				c0,1.464,1.188,2.649,2.65,2.649c0.5,0,0.967-0.139,1.365-0.378l0.001-0.001c0.095-0.058,0.187-0.121,0.273-0.19
				c1.268-0.941,2.597-2.098,2.597-2.098c0.022,0.03,0.046,0.059,0.072,0.087l2.91,3.062C14.969,20.335,15.05,20.285,15.141,20.255z
				"/>
			<path style="fill:#F7E7C7;" d="M7.662,15.542c-0.703,0-1.272,0.569-1.272,1.271c0,0.076,0.03,0.141,0.043,0.213
				c0.105-0.596,0.602-1.058,1.229-1.058c0.625,0,1.123,0.462,1.229,1.058c0.013-0.072,0.043-0.138,0.043-0.213
				C8.934,16.111,8.363,15.542,7.662,15.542z"/>
			<rect x="12.402" y="22.566" style="fill:#F7E7C7;" width="8.373" height="0.428"/>
			<path style="fill:#F7E7C7;" d="M20.27,17.869l-2.223,2.339c0,0.017-0.004,0.032-0.009,0.048c0.09,0.03,0.171,0.08,0.26,0.115
				l1.972-2.075c2.408-2.496,4.78-2.619,7.562-2.619V15.25C25.05,15.25,22.678,15.372,20.27,17.869z"/>
		</g>
		<g>
			<path style="fill:#F7E7C7;" d="M15.881,10.552c-0.118-0.124-0.188-0.284-0.229-0.457c-0.016,0.07-0.043,0.137-0.043,0.212
				c0,0.103,0.028,0.198,0.058,0.291C15.739,10.584,15.808,10.563,15.881,10.552z"/>
			<path style="fill:#F7E7C7;" d="M17.511,10.599c0.03-0.093,0.058-0.188,0.058-0.291c0-0.075-0.026-0.142-0.043-0.212
				c-0.041,0.172-0.11,0.333-0.227,0.457C17.371,10.563,17.439,10.584,17.511,10.599z"/>
			<rect x="12.402" y="13.039" style="fill:#F7E7C7;" width="8.373" height="0.428"/>
		</g>
		
			<linearGradient id="SVGID_2_" gradientUnits="userSpaceOnUse" x1="16.4199" y1="9.0347" x2="16.4199" y2="64.9619" gradientTransform="matrix(1 0 0 1 0.002 0)">
			<stop  offset="0" style="stop-color:#93492A"/>
			<stop  offset="1" style="stop-color:#EFD45B"/>
		</linearGradient>
		<path style="fill:url(#SVGID_2_);" d="M18.038,20.255c0.005-0.016,0.009-0.031,0.009-0.048l2.223-2.339
			c2.408-2.497,4.78-2.619,7.562-2.619l-0.686-1.085h-6.707h-0.668h-6.748c0,0-0.309,0-0.787,0c-1.515,0-4.063,0-4.611,0l0,0
			c-1.445,0.021-2.613,1.199-2.613,2.648c0,1.462,1.188,2.648,2.65,2.648c0.5,0,0.967-0.138,1.365-0.378l0,0h0.001
			c0.095-0.059,0.187-0.122,0.273-0.19c1.268-0.941,2.597-2.098,2.597-2.098c0.022,0.029,0.046,0.059,0.072,0.085l3.16,3.327
			c0,0.017,0.005,0.032,0.01,0.048c-1.164,0.385-2.138,1.219-2.738,2.311h8.373C20.176,21.474,19.201,20.64,18.038,20.255z
			 M7.662,18.083c-0.703,0-1.272-0.568-1.272-1.271s0.569-1.271,1.272-1.271c0.701,0,1.271,0.569,1.271,1.271
			S8.363,18.083,7.662,18.083z"/>
		
			<linearGradient id="SVGID_3_" gradientUnits="userSpaceOnUse" x1="16.5869" y1="9.0337" x2="16.5869" y2="64.9663" gradientTransform="matrix(1 0 0 1 0.002 0)">
			<stop  offset="0" style="stop-color:#93492A"/>
			<stop  offset="1" style="stop-color:#EFD45B"/>
		</linearGradient>
		<path style="fill:url(#SVGID_3_);" d="M17.299,10.552c0.164-0.175,0.27-0.411,0.27-0.671c0-0.538-0.435-0.973-0.971-0.978
			l-0.009-0.001l0,0l0,0c-0.54,0-0.979,0.438-0.979,0.979c0,0.26,0.105,0.497,0.271,0.671c-1.488,0.23-2.754,1.171-3.479,2.486
			h8.373C20.052,11.722,18.784,10.783,17.299,10.552z"/>
	</g>
</g>
</svg>
