<?xml version="1.0" encoding="utf-8"?>
<!-- Generator: Adobe Illustrator 16.0.0, SVG Export Plug-In . SVG Version: 6.00 Build 0)  -->
<!DOCTYPE svg PUBLIC "-//W3C//DTD SVG 1.1//EN" "http://www.w3.org/Graphics/SVG/1.1/DTD/svg11.dtd">
<svg version="1.1" id="Layer_1" xmlns="http://www.w3.org/2000/svg" xmlns:xlink="http://www.w3.org/1999/xlink" x="0px" y="0px"
	 width="94.503px" height="94.565px" viewBox="0 0 94.503 94.565" style="enable-background:new 0 0 94.503 94.565;"
	 xml:space="preserve">
<g>
	<g>
		<g>
			<path style="fill:#121212;" d="M58.517,94.502c-2.927,0.697-6.693-4.51-8.373-11.573c-1.682-7.058-0.661-13.407,2.263-14.101
				c2.926-0.7,6.698,4.507,8.375,11.569C62.461,87.459,61.443,93.804,58.517,94.502z"/>
		</g>
		<g>
			<path style="fill:#121212;" d="M42.157,25.735c-2.93,0.698-6.698-4.51-8.377-11.575c-1.68-7.057-0.659-13.404,2.265-14.098
				c2.93-0.7,6.695,4.507,8.375,11.572C46.099,18.693,45.078,25.042,42.157,25.735z"/>
		</g>
		<g>
			<path style="fill:#121212;" d="M14.164,60.783c-7.056,1.679-13.404,0.662-14.1-2.264c-0.701-2.925,4.507-6.694,11.567-8.375
				c7.061-1.677,13.403-0.662,14.104,2.266C26.433,55.335,21.225,59.104,14.164,60.783z"/>
		</g>
		<g>
			<path style="fill:#121212;" d="M82.935,44.418c-7.06,1.68-13.402,0.662-14.101-2.265c-0.695-2.926,4.507-6.692,11.568-8.375
				c7.058-1.678,13.405-0.658,14.101,2.265C95.199,38.971,89.993,42.737,82.935,44.418z"/>
		</g>
		<g>
			<path style="fill:#121212;" d="M88.619,72.728c-1.578,2.562-7.926,1.542-14.107-2.261c-6.178-3.807-9.944-9.013-8.369-11.573
				c1.58-2.56,7.928-1.542,14.105,2.261C86.424,64.959,90.194,70.166,88.619,72.728z"/>
		</g>
		<g>
			<path style="fill:#121212;" d="M28.418,35.671c-1.578,2.559-7.92,1.542-14.104-2.264C8.136,29.605,4.37,24.396,5.95,21.836
				c1.576-2.561,7.92-1.544,14.098,2.26C26.232,27.9,29.999,33.109,28.418,35.671z"/>
		</g>
		<g>
			<path style="fill:#121212;" d="M33.411,80.246c-3.806,6.184-9.014,9.947-11.575,8.37c-2.559-1.575-1.542-7.921,2.261-14.104
				c3.806-6.181,9.014-9.949,11.577-8.37C38.229,67.718,37.214,74.065,33.411,80.246z"/>
		</g>
		<g>
			<path style="fill:#121212;" d="M70.468,20.048c-3.805,6.181-9.014,9.95-11.579,8.375c-2.559-1.576-1.54-7.925,2.263-14.102
				c3.806-6.185,9.011-9.952,11.573-8.376C75.29,7.521,74.274,13.87,70.468,20.048z"/>
		</g>
	</g>
	<circle style="fill:#121212;" cx="47.281" cy="46.704" r="8.182"/>
</g>
</svg>
